<?xml version="1.0" encoding="utf-8"?>
<!-- Generator: Adobe Illustrator 18.1.1, SVG Export Plug-In . SVG Version: 6.00 Build 0)  -->
<!DOCTYPE svg PUBLIC "-//W3C//DTD SVG 1.1//EN" "http://www.w3.org/Graphics/SVG/1.1/DTD/svg11.dtd">
<svg version="1.1" id="Layer_1" xmlns="http://www.w3.org/2000/svg" xmlns:xlink="http://www.w3.org/1999/xlink" x="0px" y="0px"
	 viewBox="0 0 32 32" enable-background="new 0 0 32 32" xml:space="preserve">
<circle fill="#FFFFFF" cx="16" cy="16" r="15.8"/>
<path fill="#D94A34" d="M7.9,23.5C9.3,23,11.1,23,11.4,23c0.3,0,0.5,0,0.8,0c2.6,1.9,3.7,2.9,3.7,4.7c0,2-1.4,3.5-4.1,3.8
	c-2.6-0.7-5-2.1-6.9-3.9c0-0.1,0-0.2,0-0.4C4.9,24.7,7.1,23.8,7.9,23.5z M6.6,10.9c0-0.9,0.2-1.9,0.8-2.6c0.5-0.7,1.5-1.2,2.4-1.2
	c2.8,0,4.3,4,4.3,6.5c0,0.6-0.1,1.8-0.9,2.6c-0.5,0.6-1.5,1-2.3,1C8,17.3,6.6,13.3,6.6,10.9z M26.9,9h-3V6h-2v3h-3v2h3v3h2v-3h3V9z
	 M16,32c-0.6,0-1.1,0-1.7-0.1c2.6-1.3,3.9-3.4,3.9-5.6c0-2.4-1.4-3.6-2.9-5l-1.2-1c-0.4-0.3-0.9-0.7-0.9-1.5s0.5-1.3,1-1.7
	c1.4-1.2,2.9-2.4,2.9-5c0-2.7-1.6-4.1-2.4-4.8h2.1L19,6h-7c-1.9,0-4.2,0.3-6.1,1.9c-1.5,1.3-2.2,3.1-2.2,4.8c0,2.8,2,5.6,5.7,5.6
	c0.4,0,0.7,0,1.1-0.1C10.2,18.6,10,19,10,19.6c0,1.1,0.5,1.8,1,2.4c-1.5,0.1-4.4,0.3-6.5,1.6c-0.7,0.4-1.3,1-1.7,1.5
	C1.1,22.5,0,19.4,0,16C0,7.2,7.2,0,16,0s16,7.2,16,16C32,24.8,24.8,32,16,32z"/>
</svg>
