<?xml version="1.0" encoding="utf-8"?>
<!-- Generator: Adobe Illustrator 18.1.1, SVG Export Plug-In . SVG Version: 6.00 Build 0)  -->
<!DOCTYPE svg PUBLIC "-//W3C//DTD SVG 1.1//EN" "http://www.w3.org/Graphics/SVG/1.1/DTD/svg11.dtd">
<svg version="1.1" id="Layer_1" xmlns="http://www.w3.org/2000/svg" xmlns:xlink="http://www.w3.org/1999/xlink" x="0px" y="0px"
	 viewBox="0 0 32 32" enable-background="new 0 0 32 32" xml:space="preserve">
<rect x="6.5" y="4" fill="#FFFFFF" width="19.8" height="23.4"/>
<path fill="#025A88" d="M25,15.4c0-1.4-0.5-2.5-1.4-3.2c-1-0.9-2-1.3-3.5-1.3c-0.7,0-1.2,0.1-1.9,0.3c-0.7,0.2-1.4,0.7-2.3,1.3V11
	h-3.3v12H16v-4.4c0-1.3,0-2.1,0.2-2.5c0.2-0.7,0.6-1.3,1.1-1.7s1.2-0.6,1.9-0.6c0.6,0,1.1,0.1,1.5,0.4c0.4,0.2,0.7,0.6,0.8,1.1
	c0.2,0.5,0.2,1.5,0.2,2.9V23H25V15.4z M10.3,11H7v12h3.3V11z M9.8,7.5C9.5,7.2,9.1,7,8.6,7C8.2,7,7.8,7.1,7.5,7.5
	C7.2,7.8,7,8.1,7,8.6C7,9,7.2,9.4,7.5,9.7c0.3,0.3,0.7,0.5,1.2,0.5S9.5,10,9.8,9.7c0.3-0.3,0.5-0.7,0.5-1.1
	C10.3,8.2,10.1,7.8,9.8,7.5z M16,32C7.2,32,0,24.8,0,16S7.2,0,16,0s16,7.2,16,16S24.8,32,16,32z"/>
</svg>
