<?xml version="1.0" encoding="utf-8"?>
<!-- Generator: Adobe Illustrator 18.1.1, SVG Export Plug-In . SVG Version: 6.00 Build 0)  -->
<!DOCTYPE svg PUBLIC "-//W3C//DTD SVG 1.1//EN" "http://www.w3.org/Graphics/SVG/1.1/DTD/svg11.dtd">
<svg version="1.1" id="Layer_1" xmlns="http://www.w3.org/2000/svg" xmlns:xlink="http://www.w3.org/1999/xlink" x="0px" y="0px"
	 viewBox="0 0 32 32" enable-background="new 0 0 32 32" xml:space="preserve">
<rect x="7.1" y="4" fill="#FFFFFF" width="19.1" height="23.4"/>
<path fill="#509DD6" d="M25.4,8.6c-0.7,0.5-1.5,0.8-2.4,1c-0.7-0.8-1.6-1.3-2.7-1.3c-2,0-3.7,1.8-3.7,4c0,0.3,0,0.6,0.1,0.9
	C13.7,13.1,11,11.5,9.1,9c-0.3,0.6-0.5,1.3-0.5,2c0,1.4,0.6,2.6,1.6,3.4c-0.6,0-1.2-0.2-1.7-0.5V14c0,2,1.3,3.6,3,4
	c-0.3,0.1-0.6,0.1-1,0.1c-0.2,0-0.5,0-0.7-0.1c0.5,1.6,1.8,2.8,3.4,2.8c-1.3,1.1-2.9,1.7-4.6,1.7c-0.3,0-0.6,0-0.9-0.1
	c1.6,1.1,3.6,1.8,5.7,1.8c6.8,0,10.5-6.1,10.5-11.5l0-0.5c0.7-0.6,1.4-1.3,1.9-2.1c-0.7,0.3-1.4,0.5-2.1,0.6
	C24.5,10.3,25.1,9.6,25.4,8.6z M16,32C7.2,32,0,24.8,0,16S7.2,0,16,0s16,7.2,16,16S24.8,32,16,32z"/>
</svg>
